<?xml version="1.0" encoding="UTF-8"?>
<svg id="Layer_1" data-name="Layer 1" xmlns="http://www.w3.org/2000/svg" viewBox="0 0 764 263.6">
  <defs>
    <style>
      .cls-1 {
        fill: none;
      }

      .cls-2 {
        stroke: #000;
        stroke-miterlimit: 10;
        stroke-width: .5px;
      }

      .cls-3 {
        fill: #c8102e;
      }

      .cls-4 {
        fill: #9d2235;
      }

      .cls-5 {
        fill: #fa4616;
      }

      .cls-6 {
        fill: #ff6a13;
      }
    </style>
  </defs>
  <g id="Layer_1-2" data-name="Layer 1">
    <rect class="cls-1" width="850.4" height="263.6"/>
  </g>
  <g>
    <g>
      <path class="cls-2" d="M391.29,94v29.84c3.46-4.79,8.96-8.45,16.71-8.45,12.73,0,21.49,10.59,21.49,25.57s-8.76,25.57-21.49,25.57c-7.74,0-13.24-3.67-16.71-8.45v7.23h-4.79v-71.3h4.79ZM391.29,152.16c2.75,5.81,8.76,9.88,15.79,9.88,9.88,0,17.62-8.25,17.62-21.09s-7.74-21.09-17.62-21.09c-7.03,0-13.04,3.97-15.79,9.88v22.41Z"/>
      <path class="cls-2" d="M443.44,95.53c2.24,0,4.07,1.83,4.07,4.08s-1.83,4.07-4.07,4.07-4.07-1.83-4.07-4.07,1.83-4.08,4.07-4.08ZM441.1,116.61h4.79v48.69h-4.79v-48.69Z"/>
      <path class="cls-2" d="M456.07,161.94l28.93-40.95h-26.99v-4.38h33.41v3.46l-28.72,40.85h30.15v4.38h-36.77v-3.36Z"/>
      <path class="cls-2" d="M507,165.3h-4.79v-48.69h4.79v7.23c3.16-3.87,9.47-8.45,17.52-8.45,10.7,0,15.99,6.62,15.99,17.42v32.49h-4.79v-31.37c0-11.92-7.44-13.85-12.83-13.85-6.52,0-13.04,4.38-15.89,9.07v36.16Z"/>
      <path class="cls-2" d="M550.29,140.96c0-14.97,8.45-25.57,20.98-25.57,15.08,0,19.56,14.57,19.56,24.85v1.43h-35.65c.51,11.92,7.54,20.37,19.46,20.37,5.4,0,9.47-1.43,12.94-3.87v4.48c-2.85,2.24-7.74,3.87-13.75,3.87-13.65,0-23.53-10.19-23.53-25.57ZM585.94,137.7c-.1-7.13-3.46-17.83-14.77-17.83-9.88,0-15.38,8.86-15.89,17.83h30.66Z"/>
      <path class="cls-2" d="M597.86,161.84v-5.09c3.16,2.14,9.27,5.3,17.01,5.3s13.04-3.87,13.04-9.37c0-6.42-6.21-7.95-13.95-9.98-9.17-2.44-15.08-5.7-15.08-14.16,0-7.74,6.01-13.14,16.81-13.14,5.3,0,11.2,1.22,14.97,3.87v4.69c-4.08-2.55-9.17-4.08-14.67-4.08-8.25,0-12.12,3.97-12.12,8.76,0,6.62,6.72,8.35,13.14,10.08,8.86,2.34,15.79,5.19,15.79,13.95s-7.74,13.85-17.62,13.85c-7.54,0-14.06-2.44-17.32-4.69Z"/>
      <path class="cls-2" d="M685.15,160.82v3.97c-.92.71-2.44,1.02-3.77,1.02-3.57,0-6.72-2.34-7.54-6.82-3.36,3.97-8.86,7.54-16.91,7.54-8.76,0-16.81-5.6-16.81-15.89,0-9.68,8.45-15.79,18.13-15.79,7.33,0,11.92,2.44,15.18,4.69v-6.21c0-9.47-5.3-13.45-14.16-13.45-5.6,0-11,2.14-13.95,4.28v-4.79c2.75-1.93,8.15-3.97,14.97-3.97,10.29,0,17.93,5.09,17.93,17.52v21.8c0,4.28,1.53,6.72,4.48,6.72.81,0,1.73-.1,2.44-.61ZM673.43,143.61c-3.06-2.24-8.05-4.89-13.95-4.89-8.45,0-14.46,4.79-14.46,11.71,0,8.35,6.42,11.61,13.34,11.61s12.32-3.77,15.08-7.74v-10.7Z"/>
      <path class="cls-2" d="M759.2,132.1v33.21h-4.79v-31.98c0-11.41-7.03-13.24-11.41-13.24-6.01,0-11.51,3.97-14.36,9.17.2,1.53.2,3.26.2,4.89v31.17h-4.79v-31.98c0-11.41-7.03-13.24-11.41-13.24-5.81,0-11.31,3.87-14.16,8.86v36.36h-4.79v-48.69h4.79v6.93c2.95-3.97,8.25-8.15,15.69-8.15,6.93,0,11.61,3.57,13.55,9.17,3.16-4.38,8.66-9.17,16.81-9.17,9.68,0,14.67,6.32,14.67,16.71Z"/>
    </g>
    <g>
      <g>
        <path class="cls-4" d="M342.64,143.47c-1.95,0-3.81-.66-5-1.77-.48-.46-11.49-11.07-15.72-15.04-1.46-1.38-2.23-3.18-2.15-5.07.08-1.9,1.01-3.66,2.63-4.97l21.62-15.63c2.22-1.5,4.49-2.3,6.58-2.3,3.53,0,6.47,2.28,7.31,5.68l5.52,22.98c.58,2.44-.8,5.67-2.96,6.92l-14.48,8.37c-.9.53-2.09.81-3.34.81M368.39,126.18l-5.53-23c-1.41-5.72-6.34-9.56-12.26-9.56-3.13,0-6.41,1.1-9.48,3.2l-21.76,15.72-.07.06c-2.82,2.23-4.46,5.35-4.61,8.77-.15,3.35,1.23,6.64,3.76,9.02,4.28,4.02,15.58,14.9,15.69,15.02l.02.02c2.13,2,5.24,3.16,8.5,3.16,2.17,0,4.2-.52,5.9-1.49l14.48-8.37c4.13-2.39,6.49-7.89,5.37-12.52"/>
        <path class="cls-3" d="M328.51,120.35c-.71,0-1.37-.11-1.99-.3l-13.08-4.25c-3.22-1.05-6.06-4.94-6.06-8.33v-19.96c0-2.13.55-3.86,1.6-5.03.93-1.04,2.23-1.58,3.78-1.58h0c1.05,0,2.18.24,3.36.72l22.67,9.16c2.35.95,4.08,2.69,4.87,4.91s.54,4.66-.69,6.88l-7.76,14.04c-1.22,2.2-3.98,3.74-6.71,3.74M348.48,93.98c-1.28-3.6-4.03-6.42-7.76-7.93l-22.67-9.16c-1.79-.72-3.56-1.09-5.27-1.09-6.17,0-10.48,4.81-10.48,11.71v19.96c0,5.64,4.2,11.43,9.57,13.17l13.08,4.25c1.13.37,2.32.55,3.56.55,4.58,0,9.07-2.56,11.18-6.37l7.76-14.04c1.94-3.51,2.31-7.44,1.03-11.05"/>
        <path class="cls-5" d="M282.94,116.48l35.51-13.23c.75-.27,1.49-.41,2.2-.41,2.43,0,4.2,1.57,4.73,4.19l2.2,10.81,2.69,13.17c.17.84.09,1.56-.21,1.92-.28.35-.82.42-1.22.42-.26,0-.54-.03-.84-.09l-43.05-8.94h-.03c-3.26-.64-5.38-2.13-5.53-3.89-.13-1.53,1.3-3.12,3.56-3.96M335.26,130.01l-4.89-23.99c-1.01-4.94-4.91-8.27-9.72-8.27-1.3,0-2.62.24-3.94.71l-35.55,13.25c-4.48,1.68-7.18,5.27-6.85,9.16.17,2.02,1.14,3.87,2.82,5.37,1.69,1.5,3.98,2.54,6.81,3.09l43.04,8.94c.64.13,1.27.2,1.88.2,2.12,0,3.95-.81,5.16-2.3,1.3-1.58,1.75-3.77,1.26-6.17"/>
        <path class="cls-6" d="M295.12,109.84l-16.61-21.1c-2.09-2.65-4.86-4.12-7.8-4.12-3.59,0-6.79,2.2-8.59,5.91l-15.37,32.01c-1.9,3.94-.82,6.7,0,8,1.27,2.04,3.51,3.2,6.14,3.2.93,0,1.91-.15,2.91-.43l34.91-9.87c2.99-.85,5.2-2.87,6.07-5.55s.26-5.62-1.66-8.05M289.35,118.63l-34.91,9.87c-3.17.9-4.59-.8-3.17-3.77l15.37-32.03c1.8-3.73,5.37-4.11,7.93-.86l16.61,21.1c1.83,2.32,1.01,4.88-1.84,5.68"/>
      </g>
      <polygon points="221.23 94.14 208.32 94.14 208.32 165.84 221.23 165.84 221.23 123.54 232.4 123.54 232.4 112.08 221.23 112.08 221.23 94.13 221.23 94.14"/>
      <path d="M164.87,165.84v-25.62c0-3.88-.19-9.12,2.04-12.61,1.94-3.1,5.34-4.66,8.93-4.66,3.11,0,6.4,1.45,8.05,3.98,1.84,2.72,1.94,7.18,1.94,10.28v28.63h12.91v-30.18c0-6.99-.58-13.3-5.53-18.63-4.27-4.85-10.09-6.7-16.4-6.7-5.82,0-11.93,2.13-15.72,6.7-.49.39-.97.97-1.36,1.65-.39-.58-.78-1.16-1.26-1.65-3.39-4.37-8.83-6.7-14.36-6.7-5.05,0-11.65,1.84-14.16,6.7v-4.95h-11.83v53.75h12.91v-25.62c0-7.56.19-17.27,10.48-17.27,3.3,0,6.6,1.55,8.44,4.37,2.04,3.1,2.04,6.4,2.04,9.89v28.63h12.91-.02Z"/>
      <rect x="94.8" y="94.14" width="12.91" height="71.7"/>
    </g>
  </g>
</svg>